<svg id="Capa_1" data-name="Capa 1" xmlns="http://www.w3.org/2000/svg" width="275" height="27.84" viewBox="0 0 275 27.84">
  <defs>
    <style>
      .cls-1 {
        fill: #fff;
      }
    </style>
  </defs>
  <g>
    <path class="cls-1" d="M28.06,34.72a12.33,12.33,0,0,0,6.24,1.76c3.56,0,5.64-1.88,5.64-4.6,0-2.52-1.44-4-5.08-5.36-4.4-1.56-7.12-3.84-7.12-7.63,0-4.2,3.48-7.32,8.72-7.32a12.2,12.2,0,0,1,5.95,1.32l-.95,2.84a10.74,10.74,0,0,0-5.12-1.28c-3.68,0-5.08,2.2-5.08,4,0,2.51,1.64,3.76,5.36,5.19,4.55,1.76,6.87,4,6.87,7.92,0,4.16-3.07,7.76-9.43,7.76a13.93,13.93,0,0,1-6.88-1.72Z" transform="translate(-27.18 -11.57)"/>
    <path class="cls-1" d="M62.21,26.32H51.74V36H63.41V39H48.26V12H62.81v2.92H51.74v8.51H62.21Z" transform="translate(-27.18 -11.57)"/>
    <path class="cls-1" d="M88.45,37.76a25.12,25.12,0,0,1-8.28,1.48c-4.07,0-7.43-1-10.07-3.56a13.87,13.87,0,0,1-3.76-10c0-8,5.56-13.91,14.59-13.91A16.67,16.67,0,0,1,87.65,13l-.84,2.84a14,14,0,0,0-6-1.16C74.3,14.65,70,18.73,70,25.48s4.12,10.88,10.39,10.88a11.35,11.35,0,0,0,4.64-.72v-8H79.57V24.8h8.88Z" transform="translate(-27.18 -11.57)"/>
    <path class="cls-1" d="M97.26,12V28c0,6,2.68,8.6,6.27,8.6,4,0,6.56-2.64,6.56-8.6V12h3.52V27.72c0,8.28-4.36,11.68-10.2,11.68-5.51,0-9.67-3.16-9.67-11.52V12Z" transform="translate(-27.18 -11.57)"/>
    <path class="cls-1" d="M119.66,12.37a36.21,36.21,0,0,1,6.67-.56c3.72,0,6.12.68,7.8,2.2a6.71,6.71,0,0,1,2.12,5.12A7.08,7.08,0,0,1,131.17,26v.12c2.08.72,3.32,2.64,4,5.44a42.91,42.91,0,0,0,2.08,7.4h-3.6a34.93,34.93,0,0,1-1.8-6.44c-.8-3.72-2.24-5.12-5.4-5.24h-3.27V39h-3.48Zm3.48,12.27h3.55c3.72,0,6.08-2,6.08-5.11,0-3.48-2.52-5-6.2-5a14.21,14.21,0,0,0-3.43.32Z" transform="translate(-27.18 -11.57)"/>
    <path class="cls-1" d="M164.33,25.2c0,9.28-5.64,14.2-12.52,14.2-7.12,0-12.11-5.52-12.11-13.68,0-8.55,5.31-14.15,12.51-14.15C159.57,11.57,164.33,17.21,164.33,25.2Zm-20.91.44c0,5.76,3.11,10.92,8.59,10.92s8.64-5.08,8.64-11.2c0-5.36-2.8-10.95-8.6-10.95S143.42,19.73,143.42,25.64Z" transform="translate(-27.18 -11.57)"/>
    <path class="cls-1" d="M168.38,34.72a12.26,12.26,0,0,0,6.23,1.76c3.56,0,5.64-1.88,5.64-4.6,0-2.52-1.44-4-5.08-5.36-4.4-1.56-7.11-3.84-7.11-7.63,0-4.2,3.48-7.32,8.71-7.32a12.25,12.25,0,0,1,6,1.32l-1,2.84a10.74,10.74,0,0,0-5.12-1.28c-3.68,0-5.07,2.2-5.07,4,0,2.51,1.63,3.76,5.35,5.19,4.56,1.76,6.88,4,6.88,7.92,0,4.16-3.08,7.76-9.44,7.76a13.89,13.89,0,0,1-6.87-1.72Z" transform="translate(-27.18 -11.57)"/>
  </g>
  <g>
    <path class="cls-1" d="M186.08,39.41l8-27.74h6.33l8,27.74h-5.57l-5.43-21h-.35l-5.43,21Zm4-5.26V29.39h14.06v4.76Z" transform="translate(-27.18 -11.57)"/>
    <path class="cls-1" d="M211.77,39.41V11.67h5.15V39.41Zm0,0V34.66h19v4.75Z" transform="translate(-27.18 -11.57)"/>
    <path class="cls-1" d="M235.2,39.41V11.67h5.16V39.41Zm4.69-7.95V26.71h3.81a5.4,5.4,0,0,0,4-1.36,5,5,0,0,0,1.4-3.78,5.06,5.06,0,0,0-1.4-3.81,5.48,5.48,0,0,0-4-1.34H240V11.67h3.73c3.48,0,6.16.84,8.07,2.51a8.91,8.91,0,0,1,2.85,7.06c0,3.26-1,5.77-2.85,7.55s-4.59,2.67-8.07,2.67Z" transform="translate(-27.18 -11.57)"/>
    <path class="cls-1" d="M258.25,39.41V11.67h5.16V39.41ZM259.07,28V23.21h17.09V28Zm12.66,11.43V11.67h5.15V39.41Z" transform="translate(-27.18 -11.57)"/>
    <path class="cls-1" d="M279.83,39.41l8-27.74h6.33l8,27.74h-5.57l-5.43-21h-.35l-5.43,21Zm4.05-5.26V29.39h14.06v4.76Z" transform="translate(-27.18 -11.57)"/>
  </g>
</svg>
